<?xml version="1.0" encoding="iso-8859-1"?>
<!-- Uploaded to: SVG Repo, www.svgrepo.com, Generator: SVG Repo Mixer Tools -->
<svg version="1.1" id="Layer_1" xmlns="http://www.w3.org/2000/svg" xmlns:xlink="http://www.w3.org/1999/xlink" 
	 viewBox="0 0 451.296 451.296" xml:space="preserve">
<circle style="fill:#EA8953;" cx="225.648" cy="225.638" r="225.638"/>
<path style="opacity:0.1;enable-background:new    ;" d="M290.051,99.078c-1.645-1.693-3.949-2.727-6.488-2.727H103.225
	c-5.171,0-9.308,4.279-9.12,9.449l8.086,228.056c0.094,2.727,1.41,5.124,3.385,6.676l0.188,0.188l110.305,110.335
	c3.18,0.133,6.367,0.242,9.58,0.242c113.636,0,207.613-84.008,223.313-193.299L290.615,99.689L290.051,99.078z"/>
<path style="fill:#64798A;" d="M309.247,139.725c-26.439,0-47.949,21.511-47.949,47.949v63.649c0,26.439,21.51,47.949,47.949,47.949
	c26.439,0,47.949-21.51,47.949-47.949v-63.649C357.196,161.236,335.686,139.725,309.247,139.725z M335.559,251.324
	c0,14.511-11.801,26.312-26.312,26.312c-14.511,0-26.312-11.801-26.312-26.312v-63.649c0-14.511,11.801-26.312,26.312-26.312
	c14.511,0,26.312,11.801,26.312,26.312V251.324z"/>
<path style="fill:#D5D6DB;" d="M260.491,354.922H126.308c-6.419,0-11.622-5.203-11.622-11.622v-0.657h157.429v0.657
	C272.114,349.719,266.91,354.922,260.491,354.922z"/>
<path style="fill:#EBF0F3;" d="M103.233,96.356c-5.171,0-9.31,4.288-9.127,9.456l8.087,228.022c0.174,4.915,4.209,8.809,9.127,8.809
	h124.315V96.356H103.233z"/>
<path style="fill:#E1E6E9;" d="M283.566,96.356h-47.931v246.287h39.844c4.918,0,8.953-3.894,9.127-8.809l8.088-228.022
	C292.876,100.645,288.737,96.356,283.566,96.356z"/>
<path style="fill:#E56353;" d="M184.86,194.001h-49.288c-2.533,0-4.586,2.053-4.586,4.585v59.222c0,2.532,2.053,4.585,4.586,4.585
	h49.288c2.532,0,4.585-2.053,4.585-4.585v-59.222C189.445,196.053,187.392,194.001,184.86,194.001z"/>
<circle style="fill:#D15241;" cx="160.214" cy="203.141" r="4.654"/>
<rect x="157.864" y="96.353" style="fill:#64798A;" width="4.7" height="107.571"/>
</svg>